<?xml version="1.0" encoding="UTF-8"?>
<!DOCTYPE svg PUBLIC "-//W3C//DTD SVG 1.1//EN" "http://www.w3.org/Graphics/SVG/1.1/DTD/svg11.dtd">
<svg xmlns="http://www.w3.org/2000/svg" version="1.1" width="75px" height="68px" style="shape-rendering:geometricPrecision; text-rendering:geometricPrecision; image-rendering:optimizeQuality; fill-rule:evenodd; clip-rule:evenodd" xmlns:xlink="http://www.w3.org/1999/xlink">
<g><path style="opacity:1" fill="#e4e5e6" d="M 36.5,7.5 C 47.8402,6.84079 53.8402,12.1741 54.5,23.5C 60.6995,26.2347 62.8662,30.9014 61,37.5C 56.8679,42.0483 51.7013,43.715 45.5,42.5C 45.5,41.5 45.5,40.5 45.5,39.5C 48.8499,39.665 52.1832,39.4983 55.5,39C 59.4892,35.0454 59.4892,31.0454 55.5,27C 53.8659,26.5065 52.1992,26.3398 50.5,26.5C 52.1982,13.693 46.8648,8.85969 34.5,12C 32.6217,13.5429 31.1217,15.3762 30,17.5C 22.3589,14.2786 18.5255,16.9453 18.5,25.5C 16.0968,25.393 14.2635,26.393 13,28.5C 11.5202,38.177 15.6869,41.8436 25.5,39.5C 25.5,40.5 25.5,41.5 25.5,42.5C 13.5111,44.3431 8.34444,39.3431 10,27.5C 11.708,25.4565 13.708,23.7899 16,22.5C 17.3284,15.0695 21.8284,11.9028 29.5,13C 31.54,10.6642 33.8733,8.83082 36.5,7.5 Z"/></g>
<g><path style="opacity:1" fill="#65a2bc" d="M 34.5,38.5 C 36.9118,38.6941 37.9118,40.0274 37.5,42.5C 36.1667,42.5 34.8333,42.5 33.5,42.5C 33.4326,41.0413 33.7659,39.7079 34.5,38.5 Z"/></g>
<g><path style="opacity:1" fill="#629cb6" d="M 27.5,47.5 C 30.1662,47.0658 31.3329,48.0658 31,50.5C 27.4034,52.0661 26.2368,51.0661 27.5,47.5 Z"/></g>
<g><path style="opacity:1" fill="#67a5c0" d="M 40.5,47.5 C 41.5,47.5 42.5,47.5 43.5,47.5C 43.5,48.8333 43.5,50.1667 43.5,51.5C 40.0464,51.7332 39.0464,50.3999 40.5,47.5 Z"/></g>
<g><path style="opacity:1" fill="#6aabc7" d="M 33.5,56.5 C 36.1662,56.0658 37.3329,57.0658 37,59.5C 34.3422,60.694 33.1756,59.694 33.5,56.5 Z"/></g>
</svg>
