<?xml version="1.0" encoding="UTF-8"?>
<!DOCTYPE svg PUBLIC "-//W3C//DTD SVG 1.1//EN" "http://www.w3.org/Graphics/SVG/1.1/DTD/svg11.dtd">
<svg xmlns="http://www.w3.org/2000/svg" version="1.1" width="75px" height="68px" style="shape-rendering:geometricPrecision; text-rendering:geometricPrecision; image-rendering:optimizeQuality; fill-rule:evenodd; clip-rule:evenodd" xmlns:xlink="http://www.w3.org/1999/xlink">
<g><path style="opacity:1" fill="#e7e8e9" d="M 37.5,8.5 C 49.5406,7.21293 55.5406,12.5463 55.5,24.5C 63.6227,26.789 65.6227,31.789 61.5,39.5C 57.5492,43.0617 52.8826,44.395 47.5,43.5C 47.5,42.5 47.5,41.5 47.5,40.5C 58.2291,42.6106 62.0625,38.6106 59,28.5C 57.103,26.9837 54.9363,26.317 52.5,26.5C 53.447,13.6108 47.7804,9.11077 35.5,13C 34.2744,14.6349 32.941,16.1349 31.5,17.5C 24.1821,15.1516 20.5154,17.8183 20.5,25.5C 13.1483,27.8973 11.815,32.2307 16.5,38.5C 20.0318,39.9032 23.6984,40.9032 27.5,41.5C 26.6519,42.9911 25.3186,43.6578 23.5,43.5C 14.1912,42.6918 10.3579,37.6918 12,28.5C 13.0333,25.9673 14.8666,24.3006 17.5,23.5C 19.1646,16.0025 23.8313,12.5025 31.5,13C 33.6838,11.6366 35.6838,10.1366 37.5,8.5 Z"/></g>
<g><path style="opacity:1" fill="#e19c17" d="M 36.5,41.5 C 35.9569,41.56 35.6236,41.8933 35.5,42.5C 37.7427,43.4742 40.076,43.8076 42.5,43.5C 39.5559,48.7992 36.5559,54.1325 33.5,59.5C 32.675,60.3857 31.675,60.719 30.5,60.5C 32.7421,55.523 35.4087,50.6896 38.5,46C 35.8333,45.6667 33.1667,45.3333 30.5,45C 33.2567,40.8211 36.2567,36.8211 39.5,33C 40.4835,32.4092 41.1501,32.7425 41.5,34C 40.2012,36.77 38.5345,39.27 36.5,41.5 Z"/></g>
<g><path style="opacity:1" fill="#906a22" d="M 36.5,41.5 C 38.5,42.1667 40.5,42.8333 42.5,43.5C 40.076,43.8076 37.7427,43.4742 35.5,42.5C 35.6236,41.8933 35.9569,41.56 36.5,41.5 Z"/></g>
</svg>
