<?xml version="1.0" encoding="UTF-8"?>
<!DOCTYPE svg PUBLIC "-//W3C//DTD SVG 1.1//EN" "http://www.w3.org/Graphics/SVG/1.1/DTD/svg11.dtd">
<svg xmlns="http://www.w3.org/2000/svg" version="1.1" width="75px" height="68px" style="shape-rendering:geometricPrecision; text-rendering:geometricPrecision; image-rendering:optimizeQuality; fill-rule:evenodd; clip-rule:evenodd" xmlns:xlink="http://www.w3.org/1999/xlink">
<g><path style="opacity:1" fill="#e6e7e8" d="M 35.5,9.5 C 46.4256,9.29563 52.4256,14.629 53.5,25.5C 59.3927,27.9521 61.5594,32.2855 60,38.5C 59.2155,40.286 58.0488,41.786 56.5,43C 52.6049,44.2662 48.6049,44.7662 44.5,44.5C 44.5,43.5 44.5,42.5 44.5,41.5C 53.8041,44.0046 57.9707,40.6713 57,31.5C 54.6949,29.1837 51.8616,27.8504 48.5,27.5C 50.651,15.2267 45.651,10.7267 33.5,14C 31.6217,15.5429 30.1217,17.3762 29,19.5C 22.0231,16.2512 17.8564,18.5846 16.5,26.5C 9.93273,29.8404 8.93273,34.3404 13.5,40C 17.0257,41.3368 20.6924,41.8368 24.5,41.5C 24.5,42.5 24.5,43.5 24.5,44.5C 12.4687,46.2743 7.30208,41.2743 9,29.5C 10.6837,27.6487 12.5171,25.982 14.5,24.5C 16.0526,17.2383 20.3859,14.2383 27.5,15.5C 29.9264,13.0593 32.593,11.0593 35.5,9.5 Z"/></g>
<g><path style="opacity:1" fill="#67a6c1" d="M 30.5,39.5 C 31.3764,39.3691 32.0431,39.7025 32.5,40.5C 31.4196,42.9962 30.0862,45.3295 28.5,47.5C 27.883,44.6668 28.5497,42.0002 30.5,39.5 Z"/></g>
<g><path style="opacity:1" fill="#66a4be" d="M 38.5,39.5 C 39.3764,39.3691 40.0431,39.7025 40.5,40.5C 38.3238,45.5278 35.6571,50.1944 32.5,54.5C 32.1667,54.1667 31.8333,53.8333 31.5,53.5C 33.8466,48.8068 36.1799,44.1401 38.5,39.5 Z"/></g>
<g><path style="opacity:1" fill="#67a6c0" d="M 25.5,49.5 C 27.0481,49.8212 27.7148,50.8212 27.5,52.5C 24.7524,52.5983 24.0857,51.5983 25.5,49.5 Z"/></g>
<g><path style="opacity:1" fill="#6098b0" d="M 28.5,56.5 C 30.3464,56.2222 31.6798,56.8888 32.5,58.5C 31.3112,59.4287 29.9778,59.762 28.5,59.5C 28.5,58.5 28.5,57.5 28.5,56.5 Z"/></g>
</svg>
