<?xml version="1.0" encoding="UTF-8"?>
<!DOCTYPE svg PUBLIC "-//W3C//DTD SVG 1.1//EN" "http://www.w3.org/Graphics/SVG/1.1/DTD/svg11.dtd">
<svg xmlns="http://www.w3.org/2000/svg" version="1.1" width="75px" height="68px" style="shape-rendering:geometricPrecision; text-rendering:geometricPrecision; image-rendering:optimizeQuality; fill-rule:evenodd; clip-rule:evenodd" xmlns:xlink="http://www.w3.org/1999/xlink">
<g><path style="opacity:1" fill="#e8e8e9" d="M 38.5,8.5 C 50.5406,7.21293 56.5406,12.5463 56.5,24.5C 63.3729,26.2241 65.8729,30.5574 64,37.5C 60.275,42.8845 55.1084,44.8845 48.5,43.5C 48.5,42.5 48.5,41.5 48.5,40.5C 53.118,41.0761 57.2847,40.0761 61,37.5C 62.9272,30.6658 60.4272,26.9992 53.5,26.5C 54.8449,15.0107 49.8449,10.1774 38.5,12C 36.5,13.3333 34.8333,15 33.5,17C 26.2022,15.1121 21.8688,17.9454 20.5,25.5C 18.7419,26.1279 17.2419,27.1279 16,28.5C 14.1267,38.3542 18.2934,42.6875 28.5,41.5C 22.3558,44.8991 17.1892,43.5658 13,37.5C 11.0241,31.1666 12.8574,26.5 18.5,23.5C 20.1425,15.6696 24.8092,12.503 32.5,14C 34.3962,11.932 36.3962,10.0987 38.5,8.5 Z"/></g>
<g><path style="opacity:1" fill="#68a8c3" d="M 37.5,36.5 C 39.0615,38.3717 40.0615,40.7051 40.5,43.5C 41.7193,42.7366 42.7193,41.7366 43.5,40.5C 44.754,42.2592 44.4206,43.7592 42.5,45C 44.4727,45.4955 46.4727,45.6621 48.5,45.5C 48.5,46.5 48.5,47.5 48.5,48.5C 46.396,48.2011 44.396,48.5344 42.5,49.5C 45.1667,53.5 44.5,54.1667 40.5,51.5C 39.1667,59.5 37.8333,59.5 36.5,51.5C 32.5,54.1667 31.8333,53.5 34.5,49.5C 26.5,48.1667 26.5,46.8333 34.5,45.5C 31.8333,41.5 32.5,40.8333 36.5,43.5C 37.4742,41.2573 37.8076,38.924 37.5,36.5 Z"/></g>
<g><path style="opacity:1" fill="#2d3641" d="M 37.5,45.5 C 39.0481,45.8212 39.7148,46.8212 39.5,48.5C 36.7524,48.5983 36.0857,47.5983 37.5,45.5 Z"/></g>
</svg>
