<?xml version="1.0" encoding="UTF-8"?>
<!DOCTYPE svg PUBLIC "-//W3C//DTD SVG 1.1//EN" "http://www.w3.org/Graphics/SVG/1.1/DTD/svg11.dtd">
<svg xmlns="http://www.w3.org/2000/svg" version="1.1" width="74px" height="63px" style="shape-rendering:geometricPrecision; text-rendering:geometricPrecision; image-rendering:optimizeQuality; fill-rule:evenodd; clip-rule:evenodd" xmlns:xlink="http://www.w3.org/1999/xlink">
<g><path style="opacity:1" fill="#eaebec" d="M 35.5,4.5 C 47.4712,3.13864 53.4712,8.47198 53.5,20.5C 57.0897,20.5441 59.5897,22.2108 61,25.5C 61.5962,36.7256 56.4295,40.7256 45.5,37.5C 48.1071,36.6816 50.7737,36.1816 53.5,36C 58.1447,33.9754 59.6447,30.4754 58,25.5C 55.874,23.6234 53.374,22.6234 50.5,22.5C 51.447,9.61077 45.7804,5.11077 33.5,9C 32.2744,10.6349 30.941,12.1349 29.5,13.5C 22.0494,11.0537 18.3827,13.7204 18.5,21.5C 10.0878,25.0245 9.42114,29.8579 16.5,36C 19.5535,36.1786 22.5535,36.6786 25.5,37.5C 12.6744,40.1748 7.8411,35.1748 11,22.5C 12.2635,20.393 14.0968,19.393 16.5,19.5C 17.3215,11.8578 21.6549,8.35778 29.5,9C 31.3893,7.23586 33.3893,5.73586 35.5,4.5 Z"/></g>
<g><path style="opacity:1" fill="#6aabc6" d="M 29.5,35.5 C 30.5,35.5 31.5,35.5 32.5,35.5C 32.4261,39.5412 31.0928,40.2079 28.5,37.5C 28.8627,36.8165 29.1961,36.1499 29.5,35.5 Z"/></g>
<g><path style="opacity:1" fill="#65a2bc" d="M 38.5,35.5 C 40.3464,35.2222 41.6798,35.8888 42.5,37.5C 41.6798,39.1112 40.3464,39.7778 38.5,39.5C 38.5,38.1667 38.5,36.8333 38.5,35.5 Z"/></g>
<g><path style="opacity:1" fill="#69a9c5" d="M 22.5,44.5 C 23.8333,44.5 25.1667,44.5 26.5,44.5C 26.5,45.5 26.5,46.5 26.5,47.5C 25.1667,47.5 23.8333,47.5 22.5,47.5C 22.5,46.5 22.5,45.5 22.5,44.5 Z"/></g>
<g><path style="opacity:1" fill="#70b6d2" d="M 33.5,44.5 C 34.5,44.5 35.5,44.5 36.5,44.5C 36.5,45.5 36.5,46.5 36.5,47.5C 35.5,47.5 34.5,47.5 33.5,47.5C 33.5,46.5 33.5,45.5 33.5,44.5 Z"/></g>
<g><path style="opacity:1" fill="#629bb4" d="M 44.5,43.5 C 47.9563,44.5362 48.2896,46.2029 45.5,48.5C 43.2957,47.218 42.9624,45.5514 44.5,43.5 Z"/></g>
<g><path style="opacity:1" fill="#6cb0cc" d="M 29.5,52.5 C 32.8606,53.2032 33.1939,54.5365 30.5,56.5C 28.3576,55.5629 28.0243,54.2296 29.5,52.5 Z"/></g>
<g><path style="opacity:1" fill="#629cb5" d="M 38.5,52.5 C 41.1662,52.0658 42.3329,53.0658 42,55.5C 38.4034,57.0661 37.2368,56.0661 38.5,52.5 Z"/></g>
</svg>
