<?xml version="1.0" encoding="UTF-8"?>
<!DOCTYPE svg PUBLIC "-//W3C//DTD SVG 1.1//EN" "http://www.w3.org/Graphics/SVG/1.1/DTD/svg11.dtd">
<svg xmlns="http://www.w3.org/2000/svg" version="1.1" width="74px" height="63px" style="shape-rendering:geometricPrecision; text-rendering:geometricPrecision; image-rendering:optimizeQuality; fill-rule:evenodd; clip-rule:evenodd" xmlns:xlink="http://www.w3.org/1999/xlink">
<g><path style="opacity:1" fill="#e7e7e8" d="M 36.5,6.5 C 47.3887,7.05283 52.7221,12.7195 52.5,23.5C 59.2668,24.6824 61.7668,28.6824 60,35.5C 58.8333,38 57,39.8333 54.5,41C 51.1832,41.4983 47.8499,41.665 44.5,41.5C 44.5,40.5 44.5,39.5 44.5,38.5C 53.8041,41.0046 57.9707,37.6713 57,28.5C 54.6557,26.2256 51.8224,25.0589 48.5,25C 51.1397,16.1184 47.8063,10.9517 38.5,9.5C 34.1338,10.3504 30.8004,12.6837 28.5,16.5C 21.5229,13.6412 17.6896,15.9746 17,23.5C 9.65494,27.3557 8.82161,32.189 14.5,38C 17.5,38.3333 20.5,38.6667 23.5,39C 23.9574,39.414 24.2907,39.914 24.5,40.5C 13.0172,43.5101 7.85051,39.1768 9,27.5C 10.3333,24.8333 12.3333,22.8333 15,21.5C 16.689,14.4931 21.189,11.3265 28.5,12C 31.059,9.897 33.7257,8.06366 36.5,6.5 Z"/></g>
<g><path style="opacity:1" fill="#65a2bc" d="M 28.5,36.5 C 29.4972,36.4701 30.1639,36.9701 30.5,38C 28.7117,42.7074 26.545,47.2074 24,51.5C 23.5,51 23,50.5 22.5,50C 24.6433,45.5482 26.6433,41.0482 28.5,36.5 Z"/></g>
<g><path style="opacity:1" fill="#67a5bf" d="M 33.5,37.5 C 34.675,37.281 35.675,37.6143 36.5,38.5C 34.7571,42.9838 32.7571,47.3171 30.5,51.5C 30.1667,50.8333 29.8333,50.1667 29.5,49.5C 30.8514,45.4736 32.1848,41.4736 33.5,37.5 Z"/></g>
<g><path style="opacity:1" fill="#67a6c0" d="M 39.5,37.5 C 40.675,37.281 41.675,37.6143 42.5,38.5C 35.3217,55.8072 34.3217,55.4738 39.5,37.5 Z"/></g>
<g><path style="opacity:1" fill="#67a5c0" d="M 20.5,53.5 C 21.5,53.5 22.5,53.5 23.5,53.5C 23.5,54.5 23.5,55.5 23.5,56.5C 22.5,56.5 21.5,56.5 20.5,56.5C 20.5,55.5 20.5,54.5 20.5,53.5 Z"/></g>
<g><path style="opacity:1" fill="#6097b0" d="M 26.5,53.5 C 27.5,53.5 28.5,53.5 29.5,53.5C 29.7778,55.3464 29.1112,56.6798 27.5,57.5C 26.5713,56.3112 26.238,54.9778 26.5,53.5 Z"/></g>
<g><path style="opacity:1" fill="#6097b0" d="M 32.5,53.5 C 33.5,53.5 34.5,53.5 35.5,53.5C 35.7778,55.3464 35.1112,56.6798 33.5,57.5C 32.5713,56.3112 32.238,54.9778 32.5,53.5 Z"/></g>
</svg>
