<svg version="1.2" xmlns="http://www.w3.org/2000/svg" viewBox="0 0 74 63" width="74" height="63">
	<title>PartlyCloudy-svg</title>
	<style>
		.s0 { fill: #d89617 } 
		.s1 { fill: #d4d6d7 } 
		.s2 { fill: none } 
	</style>
	<g id="svgPath">
		<path id="Layer" fill-rule="evenodd" class="s0" d="m46 7c0 1.7-0.5 3-1 3-1.1 0-1.4-4.3-0.3-5.3 1.1-1.2 1.3-0.8 1.3 2.3zm-11.1 2c1.3 0 3.5 2.9 2.8 3.7-0.8 0.7-3.7-1.5-3.7-2.8 0-0.5 0.4-0.9 0.9-0.9zm20.9 0c1.3 0 1.2 0.4-0.5 2.2-2.4 2.4-4.4 1.8-2.3-0.7 0.7-0.8 2-1.5 2.8-1.5zm-9.4 3.4c3.9 0.8 5.4 2.3 6.2 6.2 0.4 2.1 0 3.7-1.4 5.4-1.1 1.4-2.3 2.2-2.7 1.8-0.4-0.4 0-1.4 0.9-2.3 2.1-2.1 2-5.3-0.1-7.7-2.8-3.2-7.8-2.1-9.5 2.1-1 2.3-1.2 2.4-1.6 0.6-0.3-1.2 0.5-2.7 2.3-4.3 2.2-1.8 3.5-2.2 5.9-1.8zm11.7 6.6c1.7 0 2.8 0.4 2.4 1-0.3 0.5-1.7 1-3.1 1-1.3 0-2.4-0.5-2.4-1 0-0.6 1.4-1 3.1-1zm-2.6 10c1.4 1.6 1.5 2 0.4 2-1.6 0-3.9-1.9-3.9-3.2 0-1.4 1.6-0.9 3.5 1.2z"/>
		<path id="Layer" fill-rule="evenodd" class="s1" d="m42.9 24.5c3 1.5 6.1 6.8 6.1 10.4 0 1.2 0.5 2.1 1 2.1 0.6 0 2.2 1.1 3.5 2.5 3.5 3.4 3.3 7.8-0.5 11.6l-3 3-18.1-0.3-18.1-0.3-2.4-2.8c-3.4-4-3.2-9.1 0.5-12.6 1.5-1.4 3.1-3.6 3.5-4.7 1-3.3 4.3-5.7 7.9-5.8 1.8-0.1 4.6-1.2 6.1-2.4 3.4-2.6 9.3-2.9 13.5-0.7zm-11 2c-1.5 0.8-2.9 2.1-3.2 2.9-0.4 1-1.6 1.3-4.4 0.9-4.4-0.6-6.5 1.1-6.5 5.2 0 1.4-0.6 2.5-1.3 2.5-1.9 0-5.5 4.4-5.5 6.8 0 1.2 0.9 3.1 2 4.2 1.9 1.9 3.1 2 20.2 1.8l18.2-0.3 1.5-2.7c1.4-2.5 1.4-2.9-0.5-5.5-1.2-1.5-3.1-2.9-4.2-3.1-1.9-0.3-2.2-1-2.2-4.7 0-3.6-0.5-4.8-3.1-6.9q-5.1-4.3-11-1.1z"/>
		<path id="Layer" class="s2" d="m0 0h37.5 37.5l-0.2 31.3-0.3 31.2-37.3 0.3-37.2 0.2v-31.5zm0.7 16.3c0.2 8.6 0.2 22.8 0 31.5-0.1 8.6-0.3 1.5-0.3-15.8 0-17.3 0.2-24.4 0.3-15.7zm44.6-12c0.6 0.2 1.2 1.4 1.2 2.7 0 1.3-0.6 2.5-1.2 2.8q-1.3 0.4-1.3-2.8 0-3.1 1.3-2.7zm-7.9 5.6c2.7 3 0.9 4.8-2 2-1.3-1.2-2.1-2.6-1.8-3 0.8-1.4 1.9-1.1 3.8 1zm18.8-1.9c1.5 0 0.5 3.2-1.4 4.4-2.5 1.6-3.4-0.1-1.3-2.4 1-1.1 2.2-2 2.7-2zm-5.5 6.2c2.9 2.7 3.1 7.8 0.3 10.3-2.6 2.4-3.4 1.5-1.6-1.9 1.7-3.3 1-6.3-1.7-7.7-2.7-1.5-6.5 0.3-7.8 3.8-0.7 1.8-1.3 2.3-2 1.6-1.2-1.2 1.2-6.8 3.3-7.6 3.1-1.2 7.3-0.6 9.5 1.5zm7.3 4.8c3.4 0 4 1.6 1 2.5-2.1 0.7-4 0-4-1.5 0-0.6 1.4-1 3-1zm-9 14.2c0 2.1 0.7 3.2 2.5 4 1.3 0.6 3.1 2.6 4 4.4 1.4 3 1.4 3.7 0.1 6.8-0.8 1.9-2.3 3.9-3.5 4.5-1.2 0.7-8.9 1.1-19.8 1.1-19.9 0-21.3-0.4-23.3-6.5-0.9-2.8-0.8-4 0.5-6.9 0.9-1.9 2.6-3.8 3.6-4.1 1-0.4 1.9-1.5 1.9-2.6 0-3.1 4.4-6.9 8.1-6.9 1.7 0 4.3-0.8 5.7-1.8 1.5-1.1 3.4-2.2 4.2-2.5 6.6-2.5 16 3.6 16 10.5zm-12.2-8.1c0.1 0 1.7 0.5 3.6 1.3 3.8 1.6 6.1 6.2 5.2 10.6-0.5 2.8-0.3 3 2.2 3 1.6 0 3.3 0.6 4 1.2 1.7 1.7 1.5 5.8-0.5 8-1.4 1.6-3.4 1.8-18.2 1.8-19.1 0-21.1-0.6-21.1-6.6 0-2.8 0.6-3.8 3-5.2 1.8-1 3-2.5 3-3.8 0-3.2 3.4-5.8 6.6-5 2.1 0.6 3.3 0.1 5.3-1.7 1.4-1.4 3.5-2.7 4.6-3 1.1-0.2 2.1-0.5 2.3-0.6zm19.6 4.1c0.5 1 0.7 2 0.3 2.4-0.8 0.8-4.7-2.4-4.7-3.8 0-1.5 3.2-0.4 4.4 1.4z"/>
		<path id="Layer" class="s2" d="m46.7 5.8c0.2 0.6 0.2 1.8 0 2.5-0.3 0.6-0.5 0.1-0.5-1.3 0-1.4 0.2-1.9 0.5-1.2zm-9.2 4.2c1.5 1.6 1.6 2.3 0.6 3.3-1 0.9-1.1 0.9-0.6-0.4 0.7-1.9-1.9-4.4-3.6-3.3-0.8 0.4-0.9 0.3-0.5-0.4 1-1.7 2-1.5 4.1 0.8zm19.1 0c0.8 0 0.3 0.8-1.4 2.1-1.5 1.3-1.6 1.2-0.3-0.4 0.7-0.9 1.5-1.7 1.7-1.7zm-18.9 8.8c0.2 0.6 1 0.9 1.5 0.6 0.7-0.4 0.8-0.2 0.4 0.5-0.9 1.3-2.6 0.5-2.5-1.2 0-0.9 0.2-0.8 0.6 0.1zm19.7 2.3c1.1-0.1 1.7 0.2 1.3 0.5-0.3 0.3-1.2 0.4-1.9 0.1-0.8-0.3-0.5-0.6 0.6-0.6zm-28.8 3.9c0.8 0 0.3 0.8-1.4 2.1-1.5 1.3-1.6 1.2-0.3-0.4 0.7-0.9 1.5-1.7 1.7-1.7zm27.5 3.7c1.3 1.6 1.2 1.7-0.4 0.4-0.9-0.7-1.7-1.5-1.7-1.7 0-0.8 0.8-0.3 2.1 1.3zm-37.5-0.7c0.8 0 0.3 0.8-1.4 2.1-1.5 1.3-1.6 1.2-0.3-0.4 0.7-0.9 1.5-1.7 1.7-1.7zm28.4 11.2c1.4 0 1.9 0.2 1.2 0.5-0.6 0.2-1.8 0.2-2.5 0-0.6-0.3-0.1-0.5 1.3-0.5zm-38.4 4.1c0.3 0.3 0.4 1.2 0.1 1.9-0.3 0.8-0.6 0.5-0.6-0.6-0.1-1.1 0.2-1.7 0.5-1.3zm3.5 8.4c1.3 1.6 1.2 1.7-0.4 0.4-0.9-0.7-1.7-1.5-1.7-1.7 0-0.8 0.8-0.3 2.1 1.3z"/>
		<path id="Layer" class="s2" d="m37 22.2c1.4 0 1.9 0.2 1.3 0.5-0.7 0.2-1.9 0.2-2.5 0-0.7-0.3-0.2-0.5 1.2-0.5zm16.6 22.1c0.3 0.3 0.4 1.2 0.1 1.9-0.3 0.8-0.6 0.5-0.6-0.6-0.1-1.1 0.2-1.7 0.5-1.3z"/>
	</g>
</svg>