<?xml version="1.0" encoding="UTF-8"?>
<!DOCTYPE svg PUBLIC "-//W3C//DTD SVG 1.1//EN" "http://www.w3.org/Graphics/SVG/1.1/DTD/svg11.dtd">
<svg xmlns="http://www.w3.org/2000/svg" version="1.1" width="74px" height="63px" style="shape-rendering:geometricPrecision; text-rendering:geometricPrecision; image-rendering:optimizeQuality; fill-rule:evenodd; clip-rule:evenodd" xmlns:xlink="http://www.w3.org/1999/xlink">
<g><path style="opacity:1" fill="#e6e7e8" d="M 36.5,8.5 C 48.3338,6.67196 55.0005,11.672 56.5,23.5C 62.3927,25.9521 64.5594,30.2855 63,36.5C 62.2155,38.286 61.0488,39.786 59.5,41C 55.6372,42.3537 51.6372,42.8537 47.5,42.5C 47.5,41.5 47.5,40.5 47.5,39.5C 56.8041,42.0046 60.9707,38.6713 60,29.5C 57.6557,27.2256 54.8224,26.0589 51.5,26C 54.1495,17.3091 50.9828,12.1425 42,10.5C 37.4635,11.191 33.9635,13.5243 31.5,17.5C 24.5229,14.6412 20.6896,16.9746 20,24.5C 12.4499,28.2453 11.6166,33.0786 17.5,39C 20.8168,39.4983 24.1501,39.665 27.5,39.5C 27.5,40.5 27.5,41.5 27.5,42.5C 16.0119,44.5044 10.8452,39.8377 12,28.5C 13.3333,25.8333 15.3333,23.8333 18,22.5C 19.3284,15.0695 23.8284,11.9028 31.5,13C 33.0632,11.264 34.7299,9.76401 36.5,8.5 Z"/></g>
<g><path style="opacity:1" fill="#de9a18" d="M 36.5,42.5 C 37.8822,43.2773 39.8822,43.944 42.5,44.5C 39.7233,50.4085 36.2233,55.7418 32,60.5C 31.5,60.1667 31,59.8333 30.5,59.5C 32.9159,54.9994 35.5825,50.6661 38.5,46.5C 36.1667,45.8333 33.8333,45.1667 31.5,44.5C 34.1778,39.8119 37.3444,35.4785 41,31.5C 41.6924,32.0253 42.1924,32.6919 42.5,33.5C 40.4742,36.5178 38.4742,39.5178 36.5,42.5 Z"/></g>
<g><path style="opacity:1" fill="#906a22" d="M 36.5,42.5 C 38.924,42.1924 41.2573,42.5258 43.5,43.5C 43.3764,44.1067 43.0431,44.44 42.5,44.5C 39.8822,43.944 37.8822,43.2773 36.5,42.5 Z"/></g>
<g><path style="opacity:1" fill="#1b7cc1" d="M 18.5,46.5 C 19.675,46.281 20.675,46.6143 21.5,47.5C 20.9049,50.3171 19.5716,52.6505 17.5,54.5C 17.1667,54 16.8333,53.5 16.5,53C 17.6094,50.9534 18.2761,48.7867 18.5,46.5 Z"/></g>
<g><path style="opacity:1" fill="#1c7bbe" d="M 25.5,46.5 C 26.675,46.281 27.675,46.6143 28.5,47.5C 24.0136,56.8527 23.0136,56.5194 25.5,46.5 Z"/></g>
<g><path style="opacity:1" fill="#1b7dc1" d="M 46.5,46.5 C 47.4972,46.4701 48.1639,46.9701 48.5,48C 47.7854,50.6053 46.4521,52.772 44.5,54.5C 43.883,51.6668 44.5497,49.0002 46.5,46.5 Z"/></g>
<g><path style="opacity:1" fill="#1c7bbe" d="M 52.5,46.5 C 53.675,46.281 54.675,46.6143 55.5,47.5C 51.0136,56.8527 50.0136,56.5194 52.5,46.5 Z"/></g>
</svg>
