<?xml version="1.0" encoding="UTF-8"?>
<!DOCTYPE svg PUBLIC "-//W3C//DTD SVG 1.1//EN" "http://www.w3.org/Graphics/SVG/1.1/DTD/svg11.dtd">
<svg xmlns="http://www.w3.org/2000/svg" version="1.1" width="75px" height="68px" style="shape-rendering:geometricPrecision; text-rendering:geometricPrecision; image-rendering:optimizeQuality; fill-rule:evenodd; clip-rule:evenodd" xmlns:xlink="http://www.w3.org/1999/xlink">
<g><path style="opacity:1" fill="#e7e8e9" d="M 35.5,9.5 C 48.0244,7.70104 54.3577,13.0344 54.5,25.5C 61.2668,26.6824 63.7668,30.6824 62,37.5C 60.8333,40 59,41.8333 56.5,43C 53.1832,43.4983 49.8499,43.665 46.5,43.5C 46.5,42.5 46.5,41.5 46.5,40.5C 55.8041,43.0046 59.9707,39.6713 59,30.5C 56.6557,28.2256 53.8224,27.0589 50.5,27C 53.1397,18.1184 49.8063,12.9517 40.5,11.5C 36.1726,12.3369 32.8393,14.6702 30.5,18.5C 23.5229,15.6412 19.6896,17.9746 19,25.5C 11.4499,29.2453 10.6166,34.0786 16.5,40C 19.8168,40.4983 23.1501,40.665 26.5,40.5C 26.5,41.5 26.5,42.5 26.5,43.5C 15.0119,45.5044 9.84522,40.8377 11,29.5C 12.3333,26.8333 14.3333,24.8333 17,23.5C 18.3284,16.0695 22.8284,12.9028 30.5,14C 32.2395,12.483 33.9062,10.983 35.5,9.5 Z"/></g>
<g><path style="opacity:1" fill="#1b7ec3" d="M 29.5,41.5 C 32.047,43.2897 31.7137,44.9564 28.5,46.5C 27.3482,44.6029 27.6815,42.9362 29.5,41.5 Z"/></g>
<g><path style="opacity:1" fill="#1d79bb" d="M 35.5,41.5 C 38.0985,43.5844 37.5985,45.2511 34,46.5C 33.5,46.1667 33,45.8333 32.5,45.5C 33.5244,44.1482 34.5244,42.8149 35.5,41.5 Z"/></g>
<g><path style="opacity:1" fill="#1b7dc2" d="M 41.5,41.5 C 42.3764,41.3691 43.0431,41.7025 43.5,42.5C 42.9297,45.7843 41.2631,46.7843 38.5,45.5C 39.5244,44.1482 40.5244,42.8149 41.5,41.5 Z"/></g>
<g><path style="opacity:1" fill="#1d78ba" d="M 23.5,50.5 C 24.4972,50.4701 25.1639,50.9701 25.5,52C 24.7046,53.7946 23.5379,55.2946 22,56.5C 21.5,56.1667 21,55.8333 20.5,55.5C 21.2599,53.6396 22.2599,51.973 23.5,50.5 Z"/></g>
<g><path style="opacity:1" fill="#1c79bb" d="M 29.5,50.5 C 30.4972,50.4701 31.1639,50.9701 31.5,52C 30.7046,53.7946 29.5379,55.2946 28,56.5C 27.5,56.1667 27,55.8333 26.5,55.5C 27.2599,53.6396 28.2599,51.973 29.5,50.5 Z"/></g>
<g><path style="opacity:1" fill="#1c79bb" d="M 35.5,50.5 C 36.4972,50.4701 37.1639,50.9701 37.5,52C 36.7082,53.9597 35.3749,55.4597 33.5,56.5C 33.1667,56 32.8333,55.5 32.5,55C 33.3146,53.3566 34.3146,51.8566 35.5,50.5 Z"/></g>
</svg>
