<svg version="1.2" xmlns="http://www.w3.org/2000/svg" viewBox="0 0 75 68" width="75" height="68">
	<title>Clear-svg</title>
	<style>
		.s0 { fill: none } 
		.s1 { fill: #e29a16 } 
	</style>
	<g id="svgPath">
		<path id="Layer" class="s0" d="m0 0h38 38l-0.2 33.8-0.3 33.7-37.8 0.3-37.7 0.2v-34zm0.7 17.2c0.2 9.2 0.2 24.5 0 34-0.1 9.5-0.3 2-0.3-16.7 0-18.7 0.2-26.5 0.3-17.3zm40.1-0.3c0.4 2.5-1.5 5.4-2.9 4.5-1.1-0.6-1.2-5.7-0.2-6.7 1.2-1.2 2.8-0.1 3.1 2.2zm13.5 3c0.8 0.9 0.4 1.8-1.6 3.8-2 2.1-3 2.5-3.8 1.6-0.9-0.8-0.5-1.8 1.6-3.8 2-2 2.9-2.4 3.8-1.6zm-26.1 1.8c2.1 1.9 2.4 4.3 0.5 4.3-1.7 0-5.9-4.4-5-5.3 1.1-1.1 2.5-0.8 4.5 1zm11.2 2.3c3 0 4.5 0.7 7.2 3.4 2.8 2.8 3.4 4.2 3.4 7.6 0 8.1-9.1 13.6-16.3 9.9-7.4-3.8-7.7-15.5-0.6-19.5 1.3-0.7 4.1-1.3 6.3-1.4zm-0.4 3c1.9 0 4 0.9 5.5 2.5 1.6 1.5 2.5 3.6 2.5 5.5 0 2-0.9 4-2.5 5.6-1.5 1.5-3.6 2.4-5.5 2.4-1.9 0-4-0.9-5.5-2.4-1.6-1.6-2.5-3.6-2.5-5.6 0-1.9 0.9-4 2.5-5.5 1.5-1.6 3.6-2.5 5.5-2.5zm-14.5 8c0 1.8-4.3 2.6-5.7 1.2-0.6-0.6-0.7-1.5-0.3-2.2 1-1.6 6-0.8 6 1zm31.8-1.8c4.1 0.4 4.3 3.2 0.3 3.6-3.1 0.4-5.2-1-4.1-2.8 0.4-0.6 2.1-1 3.8-0.8zm-27 11.7c0.8 0.9 0.4 1.8-1.6 3.8-2 2.1-3 2.5-3.8 1.6-0.9-0.8-0.5-1.8 1.6-3.8 2-2 2.9-2.4 3.8-1.6zm23.7 1.6c1.7 1.9 2.1 2.8 1.3 3.6-0.8 0.9-1.8 0.5-3.8-1.5-1.4-1.4-2.3-3.1-2-3.6 1-1.5 2-1.2 4.5 1.5zm-13.4 2.6c1.9 1.6 1.5 6.4-0.6 6.4-1.6 0-2.5-3.6-1.6-6.2 0.5-1.2 0.9-1.3 2.2-0.2z"/>
		<path id="Layer" fill-rule="evenodd" class="s1" d="m39 14c0.5 0 1 1.6 1 3.5 0 1.9-0.5 3.5-1 3.5-0.5 0-1-1.6-1-3.5 0-1.9 0.5-3.5 1-3.5zm-14.2 6c1.5 0 5.4 4.8 4.4 5.4-1.2 0.7-5.2-2.2-5.2-4 0-0.8 0.4-1.4 0.8-1.4zm28.4 0c1.5 0 0.5 3.2-1.4 4.4-2.5 1.5-3.4-0.1-1.3-2.4 1-1.1 2.2-2 2.7-2zm-14.4 4c5.6 0 11.2 5.6 11.2 11.2 0 6.2-6.9 11.6-13.3 10.4-9.4-1.8-11.6-14.6-3.5-19.6 1.8-1.1 4.3-2 5.6-2zm-5.5 5.3c-2.8 3.1-3.4 5.2-2.2 8.6 1.2 3.3 6.7 6.5 9.6 5.5 9.4-3.4 8-16.4-1.8-16.4-2.4 0-4.2 0.7-5.6 2.3zm-11.8 4.7c1.9 0 3.5 0.5 3.5 1 0 0.5-1.6 1-3.5 1-1.9 0-3.5-0.5-3.5-1 0-0.5 1.6-1 3.5-1zm35 0c1.9 0 3.5 0.5 3.5 1 0 0.5-1.6 1-3.5 1-1.9 0-3.5-0.5-3.5-1 0-0.5 1.6-1 3.5-1zm-28.3 11c1.5 0 0.5 3.2-1.4 4.4-2.5 1.5-3.4-0.1-1.3-2.4 1-1.1 2.2-2 2.7-2zm25.2 2.2c0.5 0.9 0.7 2 0.3 2.4-0.8 0.8-4.7-2.4-4.7-3.8 0-1.5 3.2-0.5 4.4 1.4zm-14.4 1.8c0.6 0 1 1.6 1 3.5 0 1.9-0.4 3.5-1 3.5-0.5 0-1-1.6-1-3.5 0-1.9 0.5-3.5 1-3.5z"/>
		<path id="Layer" class="s0" d="m38.2 18.4c0.2 1.9 0 3.2-0.4 3-0.4-0.3-0.8-1.8-0.8-3.5 0-4 0.7-3.7 1.2 0.5zm2.5-2.7c0.2 0.7 0.2 2.1 0 3-0.3 1-0.5 0.5-0.5-1.2 0-1.6 0.2-2.4 0.5-1.8zm13.4 4c0.7 0.7 1 1.5 0.7 1.8-0.3 0.3-0.9-0.2-1.2-1.2-0.6-1.4-0.5-1.5 0.5-0.6zm-27.9 0.3c0.3 0 1.3 0.9 2.3 2 1 1.1 1.6 2 1.3 2-0.3 0-1.3-0.9-2.3-2-1-1.1-1.6-2-1.3-2zm25.8 0.4c0 0.2-0.8 1-1.8 1.7-1.5 1.3-1.6 1.2-0.3-0.3 1.3-1.7 2.1-2.2 2.1-1.4zm-2.7 4.2c1 0.3 1.5 0.9 1.2 1.2-0.3 0.3-1.1 0-1.8-0.7-0.9-1-0.8-1.1 0.6-0.5zm-27.8 8.6c1.6 0 2.4 0.2 1.8 0.5-0.7 0.2-2.1 0.2-3 0-1-0.3-0.5-0.5 1.2-0.5zm34.8 0l3.2 0.1-3.3 0.4c-1.7 0.2-3.2 0.8-3.2 1.4 0 0.5 1.5 1 3.2 1.1 3.2 0.1 3.3 0.1 0.4 0.5-3.1 0.5-5.2-0.9-4.2-2.6 0.4-0.6 2.2-1 3.9-0.9zm-34.8 3c1.6 0 2.4 0.2 1.8 0.5-0.7 0.2-2.1 0.2-3 0-1-0.3-0.5-0.5 1.2-0.5zm7.6 8.5c0.7 0.7 1 1.5 0.7 1.8-0.3 0.3-0.9-0.2-1.2-1.2-0.6-1.4-0.5-1.5 0.5-0.6zm21-0.7c1.4 0 1.1 0.7-0.7 1.4-0.8 0.3-1.2 0.2-0.9-0.4 0.3-0.6 1-1 1.6-1zm-23.5 1c0.8 0 0.3 0.8-1.4 2.1-1.5 1.3-1.6 1.2-0.3-0.3 0.7-1 1.5-1.8 1.7-1.8zm24.5 3.8c1.3 1.5 1.2 1.6-0.4 0.3-0.9-0.7-1.7-1.5-1.7-1.7 0-0.8 0.8-0.3 2.1 1.4zm-13 3c-0.4 2.7-0.6 3.1-0.9 1.4-0.2-1.3-0.1-3 0.2-3.8 0.9-2.4 1.2-1.5 0.7 2.4zm16.7-3.3c0.3 0.3 0 1.1-0.7 1.8-1 0.9-1.1 0.8-0.5-0.6 0.3-1 0.9-1.5 1.2-1.2zm-30.5 1.1c1 0.3 1.5 0.9 1.2 1.2-0.3 0.3-1.1 0-1.8-0.7-0.9-1-0.8-1.1 0.6-0.5zm16.4 1.1c0.2 0.7 0.2 2.1 0 3-0.3 1-0.5 0.4-0.5-1.2 0-1.6 0.2-2.4 0.5-1.8z"/>
	</g>
</svg>