<svg version="1.2" xmlns="http://www.w3.org/2000/svg" viewBox="0 0 75 68" width="75" height="68">
	<title>Cloudy-svg</title>
	<style>
		.s0 { fill: none } 
		.s1 { fill: #d8d8dc } 
	</style>
	<g id="svgPath">
		<path id="Layer" class="s0" d="m0 0h38 38l-0.2 33.8-0.3 33.7-37.8 0.3-37.7 0.2v-34zm0.7 17.2c0.2 9.2 0.2 24.5 0 34-0.1 9.5-0.3 2-0.3-16.7 0-18.7 0.2-26.5 0.3-17.3zm47.3-0.9c3.5 1.8 7 7.4 7 11.4 0 2.3 0.5 3.3 1.5 3.3 0.9 0 2.7 1.1 4 2.5 3.4 3.3 3.3 8.4-0.1 12.4l-2.6 3.1h-20.5-20.5l-2.9-2.9c-2.3-2.3-2.9-3.8-2.9-7.1 0-3.6 0.6-4.8 3.5-7.6 1.9-1.8 3.5-3.8 3.5-4.6 0.1-3.2 5-6.8 9.4-6.8 1.4 0 4.2-1.1 6.2-2.5 4.1-2.8 10.2-3.3 14.4-1.2zm4 12.2c0 3.7 0.3 4.5 1.8 4.5 3.3 0 6.2 2.9 6.2 6.3 0 6.8-2.8 7.7-23.3 7.7-17.6 0-20.3-0.6-22.5-5.3-1.6-3.3 0-7.5 3.7-9.3 1.5-0.8 2.5-2.3 2.7-4 0.4-3.9 3.1-5.6 7.7-5.1 3 0.4 3.9 0.1 4.8-1.5 0.6-1.1 2.5-2.6 4.2-3.3 7.2-3.2 14.7 2 14.7 10z"/>
		<path id="Layer" class="s0" d="m33.7 17c0.8 0 0.2 0.8-2 2.6l-2.2 1.9 1.9-2.3c1.1-1.2 2.1-2.2 2.3-2.2zm27.4 16.8c1.3 1.5 1.2 1.6-0.4 0.3-0.9-0.7-1.7-1.5-1.7-1.7 0-0.8 0.8-0.3 2.1 1.3zm-0.5 4.6c0.3 0.3 0.4 1.2 0.1 1.9-0.3 0.8-0.6 0.5-0.6-0.6-0.1-1.1 0.2-1.7 0.5-1.3z"/>
		<path id="Layer" fill-rule="evenodd" class="s1" d="m55 28.5c0 1.5 0.6 2.5 1.4 2.5 0.8 0 2.6 1.4 4 3.1 3.5 4.1 3.4 8.3-0.3 12l-2.9 2.9h-40.4l-2.9-2.9c-2-2-2.9-4-2.9-6.1 0-4 2.4-8.7 5-9.5 1.1-0.4 2-1.5 2-2.6 0-1.2 1.3-3.4 3-5.1 2.3-2.3 3.7-2.9 6.4-2.7 2.4 0.2 4.2-0.4 6.5-2.4 8.1-6.8 21.1-0.2 21.1 10.8zm-17.6-10.5c-1.2 0.4-3 1.9-4 3.3-1.5 1.9-2.4 2.2-4.2 1.6-4.3-1.6-9.2 2-9.2 6.8 0 1-1 2.3-2.2 2.8-3.7 1.6-5.4 5.7-3.9 9.2 1.9 4.7 4.5 5.3 24 5.3 19.5 0 21.3-0.5 22.6-6 0.8-3.4-2.7-8-6-8-2.1 0-2.4-0.4-2.2-3.9q0.3-7.6-5.8-10.6c-3.6-1.7-5.9-1.8-9.1-0.5z"/>
	</g>
</svg>