<?xml version="1.0" encoding="UTF-8"?>
<!DOCTYPE svg PUBLIC "-//W3C//DTD SVG 1.1//EN" "http://www.w3.org/Graphics/SVG/1.1/DTD/svg11.dtd">
<svg xmlns="http://www.w3.org/2000/svg" version="1.1" width="74px" height="63px" style="shape-rendering:geometricPrecision; text-rendering:geometricPrecision; image-rendering:optimizeQuality; fill-rule:evenodd; clip-rule:evenodd" xmlns:xlink="http://www.w3.org/1999/xlink">
<g><path style="opacity:1" fill="#e3e3e5" d="M 24.5,21.5 C 27.1873,21.3359 29.854,21.5026 32.5,22C 37.4854,24.666 42.6521,26.8326 48,28.5C 52.1927,27.4262 56.3594,26.5929 60.5,26C 55.48,30.0042 49.8133,31.3375 43.5,30C 39.9934,27.746 36.3267,25.746 32.5,24C 27.9939,23.0729 23.8272,23.9063 20,26.5C 19.5,26.1667 19,25.8333 18.5,25.5C 20.5654,24.1433 22.5654,22.81 24.5,21.5 Z"/></g>
<g><path style="opacity:1" fill="#dbdbdd" d="M 23.5,29.5 C 30.5808,28.8053 36.9141,30.6386 42.5,35C 48.5079,36.1963 54.1746,35.363 59.5,32.5C 60.5709,34.3255 59.9042,35.4921 57.5,36C 52.3169,38.8148 46.9836,39.1482 41.5,37C 34.8585,30.94 27.6918,30.1066 20,34.5C 19.5,34.1667 19,33.8333 18.5,33.5C 20.21,32.1128 21.8767,30.7794 23.5,29.5 Z"/></g>
<g><path style="opacity:1" fill="#e0e1e2" d="M 23.5,37.5 C 31.0341,36.2864 37.7008,38.1197 43.5,43C 49.1048,43.951 54.4381,43.1177 59.5,40.5C 59.8333,40.8333 60.1667,41.1667 60.5,41.5C 52.0457,46.9886 43.7124,46.8219 35.5,41C 29.8987,38.7003 24.5654,39.2003 19.5,42.5C 18.479,41.9984 18.3123,41.3317 19,40.5C 20.6516,39.6006 22.1516,38.6006 23.5,37.5 Z"/></g>
</svg>
