<?xml version="1.0" encoding="UTF-8"?>
<!DOCTYPE svg PUBLIC "-//W3C//DTD SVG 1.1//EN" "http://www.w3.org/Graphics/SVG/1.1/DTD/svg11.dtd">
<svg xmlns="http://www.w3.org/2000/svg" version="1.1" width="74px" height="63px" style="shape-rendering:geometricPrecision; text-rendering:geometricPrecision; image-rendering:optimizeQuality; fill-rule:evenodd; clip-rule:evenodd" xmlns:xlink="http://www.w3.org/1999/xlink">
<g><path style="opacity:1" fill="#e7e7e8" d="M 37.5,6.5 C 49.5406,5.21293 55.5406,10.5463 55.5,22.5C 63.6227,24.789 65.6227,29.789 61.5,37.5C 57.5492,41.0617 52.8826,42.395 47.5,41.5C 47.5,40.5 47.5,39.5 47.5,38.5C 58.2291,40.6106 62.0625,36.6106 59,26.5C 57.103,24.9837 54.9363,24.317 52.5,24.5C 53.447,11.6108 47.7804,7.11077 35.5,11C 34.2744,12.6349 32.941,14.1349 31.5,15.5C 24.1821,13.1516 20.5154,15.8183 20.5,23.5C 13.8969,25.3779 12.2303,29.3779 15.5,35.5C 19.0403,38.1153 23.0403,39.1153 27.5,38.5C 27.5,39.5 27.5,40.5 27.5,41.5C 16.1446,42.6428 10.9779,37.6428 12,26.5C 13.0333,23.9673 14.8666,22.3006 17.5,21.5C 19.3655,13.6422 24.3655,9.97555 32.5,10.5C 34.21,9.11276 35.8767,7.77943 37.5,6.5 Z"/></g>
<g><path style="opacity:1" fill="#1c7bbe" d="M 38.5,34.5 C 40.2252,34.8425 40.7252,35.8425 40,37.5C 37.2247,44.8581 33.8914,51.8581 30,58.5C 29.5,58.1667 29,57.8333 28.5,57.5C 31.573,49.6906 34.9063,42.024 38.5,34.5 Z"/></g>
<g><path style="opacity:1" fill="#1d79bb" d="M 32.5,34.5 C 33.4972,34.4701 34.1639,34.9701 34.5,36C 32.2275,42.0429 29.5608,47.8762 26.5,53.5C 25.3691,51.9255 25.2025,50.2588 26,48.5C 27.9237,43.6563 30.0904,38.9897 32.5,34.5 Z"/></g>
<g><path style="opacity:1" fill="#1c7abd" d="M 44.5,34.5 C 45.4972,34.4701 46.1639,34.9701 46.5,36C 44.2275,42.0429 41.5608,47.8762 38.5,53.5C 38.838,46.8107 40.838,40.4774 44.5,34.5 Z"/></g>
</svg>
