<?xml version="1.0" encoding="UTF-8"?>
<!DOCTYPE svg PUBLIC "-//W3C//DTD SVG 1.1//EN" "http://www.w3.org/Graphics/SVG/1.1/DTD/svg11.dtd">
<svg xmlns="http://www.w3.org/2000/svg" version="1.1" width="74px" height="63px" style="shape-rendering:geometricPrecision; text-rendering:geometricPrecision; image-rendering:optimizeQuality; fill-rule:evenodd; clip-rule:evenodd" xmlns:xlink="http://www.w3.org/1999/xlink">
<g><path style="opacity:1" fill="#6aabc6" d="M 38.5,9.5 C 40.1171,10.5893 40.9504,12.256 41,14.5C 41.9653,12.7397 43.132,12.4063 44.5,13.5C 40.7602,16.6762 39.5935,20.6762 41,25.5C 45.0785,22.9303 47.2451,19.2636 47.5,14.5C 48.2508,15.376 48.7508,16.376 49,17.5C 50.1707,15.3843 51.6707,14.7176 53.5,15.5C 52.6872,16.8139 51.6872,17.9805 50.5,19C 51.624,19.2492 52.624,19.7492 53.5,20.5C 48.7364,20.7549 45.0697,22.9215 42.5,27C 47.3238,28.4065 51.3238,27.2398 54.5,23.5C 55.5937,24.868 55.2603,26.0347 53.5,27C 60.1667,28 60.1667,29 53.5,30C 55.2603,30.9653 55.5937,32.132 54.5,33.5C 51.3238,29.7602 47.3238,28.5935 42.5,30C 45.0697,34.0785 48.7364,36.2451 53.5,36.5C 52.624,37.2508 51.624,37.7508 50.5,38C 52.6157,39.1707 53.2824,40.6707 52.5,42.5C 51.1861,41.6872 50.0195,40.6872 49,39.5C 48.7508,40.624 48.2508,41.624 47.5,42.5C 47.2451,37.7364 45.0785,34.0697 41,31.5C 39.5935,36.3238 40.7602,40.3238 44.5,43.5C 43.132,44.5937 41.9653,44.2603 41,42.5C 40,50.5 39,50.5 38,42.5C 37.0347,44.2603 35.868,44.5937 34.5,43.5C 38.2398,40.3238 39.4065,36.3238 38,31.5C 33.9215,34.0697 31.7549,37.7364 31.5,42.5C 30.7492,41.624 30.2492,40.624 30,39.5C 28.8293,41.6157 27.3293,42.2824 25.5,41.5C 26.3128,40.1861 27.3128,39.0195 28.5,38C 27.376,37.7508 26.376,37.2508 25.5,36.5C 30.2636,36.2451 33.9303,34.0785 36.5,30C 31.6762,28.5935 27.6762,29.7602 24.5,33.5C 23.4063,32.132 23.7397,30.9653 25.5,30C 17.5,29 17.5,28 25.5,27C 23.7397,26.0347 23.4063,24.868 24.5,23.5C 27.6762,27.2398 31.6762,28.4065 36.5,27C 33.9303,22.9215 30.2636,20.7549 25.5,20.5C 26.376,19.7492 27.376,19.2492 28.5,19C 26.3843,17.8293 25.7176,16.3293 26.5,14.5C 27.8139,15.3128 28.9805,16.3128 30,17.5C 30.2492,16.376 30.7492,15.376 31.5,14.5C 31.7549,19.2636 33.9215,22.9303 38,25.5C 39.4065,20.6762 38.2398,16.6762 34.5,13.5C 35.868,12.4063 37.0347,12.7397 38,14.5C 38.4935,12.8659 38.6602,11.1992 38.5,9.5 Z"/></g>
</svg>
